<svg width="503" height="382" viewBox="0 0 503 382" fill="none" xmlns="http://www.w3.org/2000/svg">
<path d="M326.768 218.679C328.233 224.568 330.384 236.288 332.546 247.633" stroke="#434446" stroke-width="2.5" stroke-linecap="round" stroke-linejoin="round"/>
<path d="M295.586 171.423C311.671 175.701 330.074 209.398 329.597 214.517C329.337 217.287 325.787 219.803 321.535 221.812" stroke="#434446" stroke-width="2.5" stroke-linecap="round" stroke-linejoin="round"/>
<path d="M327.933 248.95C319.437 199.841 297.354 161.054 267.411 151.767" stroke="#434446" stroke-width="2.5" stroke-linecap="round" stroke-linejoin="round"/>
<path d="M198.302 311.552C199.847 326.998 201.68 337.939 202.346 340.526C213.601 362.142 302.345 374.044 325.259 354.166C330.841 328.792 332.849 302.758 331.225 276.821" stroke="#434446" stroke-width="2.5" stroke-linecap="round" stroke-linejoin="round"/>
<path d="M237.879 152.189C229.35 155.2 222.47 160.818 216.919 168.251" stroke="#434446" stroke-width="2.5" stroke-linecap="round" stroke-linejoin="round"/>
<path d="M189.907 247.254C187.871 259.222 187.792 296.891 189.513 301.881C191.402 307.337 206.87 319.067 211.497 318.526C277.275 310.8 342.862 271.63 354.664 261.864C381.8 254.513 396.238 241.502 393.514 226.933C391.905 218.329 385.983 213.021 383.357 213.512C378.379 214.442 371.142 224.69 370.548 227.402C371.859 222.583 377.077 213.208 371.533 214.245C369.99 214.533 360.752 234.395 354.754 239.918C353.107 241.43 344.512 244.201 332.546 247.633" stroke="#434446" stroke-width="2.5" stroke-linecap="round" stroke-linejoin="round"/>
<path d="M332.555 247.682C301.106 256.709 246.33 270.381 233.057 278.226C234.183 274.302 236.371 263.207 237.385 256.258" stroke="#434446" stroke-width="2.5" stroke-linecap="round" stroke-linejoin="round"/>
<path d="M237.376 256.209C241.193 256.143 243.934 255.731 244.881 254.907C249.638 250.738 258.451 172.679 226.792 167.346C223.482 166.762 220.076 167.084 216.934 168.279" stroke="#434446" stroke-width="2.5" stroke-linecap="round" stroke-linejoin="round"/>
<path d="M216.973 168.271C192.694 177.496 184.495 236.467 186.811 244.099C188.907 250.983 221.954 256.451 237.415 256.201" stroke="#434446" stroke-width="2.5" stroke-linecap="round" stroke-linejoin="round"/>
<path d="M267.433 151.773C267.469 146.565 267.683 140.898 268.138 136.796" stroke="#434446" stroke-width="2.5" stroke-linecap="round" stroke-linejoin="round"/>
<path d="M237.866 152.333C237.711 153.907 237.421 155.464 236.999 156.988C239.389 160.103 259.221 166.747 267.42 162.998C267.41 160.46 267.385 156.275 267.442 151.771" stroke="#434446" stroke-width="2.5" stroke-linecap="round" stroke-linejoin="round"/>
<path d="M236.881 122.159C237.8 127.502 238.912 142.959 237.866 152.333" stroke="#434446" stroke-width="2.5" stroke-linecap="round" stroke-linejoin="round"/>
<path d="M253.087 134.753C256.086 135.929 259.245 136.648 262.457 136.887C284.406 138.541 303.866 117.537 305.906 89.9752C306.289 84.976 306.061 79.9485 305.228 75.0038" stroke="#434446" stroke-width="2.5" stroke-linecap="round" stroke-linejoin="round"/>
<path d="M227.258 99.9246C228.695 107.986 231.987 115.603 236.873 122.17" stroke="#434446" stroke-width="2.5" stroke-linecap="round" stroke-linejoin="round"/>
<path d="M247.643 89.8086C249.832 89.5208 257.31 83.7509 256.776 70.7361C262.557 68.6432 289.379 66.5323 305.197 74.8375C310.668 75.8385 315.112 76.6975 322.833 75.2537C326.494 74.5693 328.881 70.1561 328.39 67.5259C327.035 60.2808 322.618 53.8409 313.462 55.0672C321.064 53.4737 327.258 47.4279 326.607 43.9471C325.743 39.3223 312.597 27.0972 295.457 36.7379C299.17 32.8255 303.455 28.8874 302.905 25.9444C301.958 20.8796 293.826 17.3708 281.136 19.7435C261.613 23.3939 241.755 35.5162 238.235 42.1953C235.879 41.4822 232.759 39.9204 227.536 40.8969C214.485 43.3371 218.025 86.472 226.32 99.6042C227.885 100.242 229.562 100.558 231.252 100.534" stroke="#434446" stroke-width="2.5" stroke-linecap="round" stroke-linejoin="round"/>
<path d="M248.206 90.6549C247.213 88.9308 245.722 87.549 243.928 86.6926C242.135 85.8361 240.124 85.5454 238.163 85.859C236.202 86.1726 234.382 87.0756 232.945 88.4485C231.509 89.8214 230.522 91.5993 230.118 93.5468C229.713 95.4942 229.908 97.5192 230.678 99.3535C231.448 101.188 232.756 102.745 234.429 103.819C236.102 104.892 238.061 105.431 240.046 105.365C242.032 105.299 243.95 104.63 245.546 103.447" stroke="#434446" stroke-width="2.5" stroke-linecap="round" stroke-linejoin="round"/>
<path fill-rule="evenodd" clip-rule="evenodd" d="M344.094 186.124C343.632 184.068 344.924 182.026 346.981 181.564L375.774 175.094C377.831 174.632 379.873 175.924 380.335 177.981L388.601 214.768C387.889 214.09 387.166 213.533 386.463 213.116C385.415 212.495 384.226 212.077 383.127 212.283C381.573 212.573 379.99 213.547 378.548 214.725C377.325 215.725 376.117 216.943 375.005 218.217C375.117 217.732 375.202 217.257 375.247 216.806C375.313 216.14 375.302 215.431 375.088 214.79C374.858 214.102 374.392 213.496 373.632 213.168C372.928 212.863 372.121 212.863 371.303 213.016C370.989 213.075 370.755 213.226 370.626 213.321C370.481 213.427 370.354 213.549 370.248 213.661C370.035 213.886 369.814 214.172 369.595 214.482C369.152 215.107 368.619 215.965 368.028 216.965C367.273 218.24 366.388 219.807 365.426 221.507L365.421 221.516C364.878 222.477 364.31 223.481 363.729 224.498C362.106 227.339 360.356 230.322 358.644 232.931C358.595 233.006 358.547 233.079 358.498 233.153C356.466 233.569 354.466 232.283 354.009 230.25L344.094 186.124ZM359.307 187.569C359.208 187.083 359.485 186.602 359.925 186.493L366.091 184.966C366.531 184.857 366.969 185.162 367.067 185.647L369.191 196.059C369.29 196.544 369.013 197.026 368.572 197.135L362.407 198.662C361.967 198.771 361.529 198.466 361.43 197.981L359.307 187.569Z" fill="#3600C4"/>
<path d="M158.682 31.1965L116.433 15.4534L94.8542 73.3635L137.104 89.1067L158.682 31.1965Z" fill="#DFDFDF"/>
<path d="M158.682 31.1965L116.433 15.4534L114.941 19.4578L157.19 35.2009L158.682 31.1965Z" fill="#F3F3F3"/>
<path d="M126.317 27.4766L89.1359 52.9803L124.093 103.943L161.274 78.4395L126.317 27.4766Z" fill="#F3F3F3"/>
<path d="M126.317 27.4766L89.1359 52.9803L91.5531 56.5044L128.734 31.0006L126.317 27.4766Z" fill="#DFDFDF"/>
<path d="M129.211 39.8417L99.9007 59.9469L101.574 62.3866L130.885 42.2815L129.211 39.8417Z" fill="#DFDFDF"/>
<path d="M132.558 44.7211L103.248 64.8263L104.921 67.266L134.232 47.1609L132.558 44.7211Z" fill="#DFDFDF"/>
<path d="M135.905 49.6005L106.595 69.7057L108.268 72.1454L137.579 52.0402L135.905 49.6005Z" fill="#DFDFDF"/>
<path d="M126.634 79.8373C127.149 80.5874 127.324 81.4241 127.159 82.3475C126.997 83.2558 126.458 84.1373 125.541 84.9922L126.573 86.4967L124.944 87.6136L123.95 86.1633C123.24 86.5835 122.52 86.9113 121.79 87.1462C121.054 87.3722 120.394 87.4862 119.81 87.4881L119.335 84.9042C119.952 84.8926 120.6 84.7805 121.278 84.5674C121.957 84.3542 122.568 84.0616 123.111 83.6893C124.142 82.9819 124.481 82.3707 124.128 81.8556C123.942 81.5846 123.656 81.4883 123.271 81.5664C122.888 81.6295 122.322 81.812 121.571 82.1143C120.751 82.4508 120.043 82.6977 119.445 82.855C118.842 83.0031 118.235 83.0008 117.625 82.8481C117.015 82.6955 116.483 82.2891 116.031 81.6296C115.498 80.8524 115.322 79.9959 115.505 79.06C115.682 78.115 116.256 77.2164 117.228 76.3638L116.205 74.8729L117.833 73.7559L118.838 75.2197C119.384 74.9113 119.939 74.6634 120.503 74.4763C121.075 74.2829 121.621 74.1675 122.141 74.1299L122.68 76.6901C121.44 76.8227 120.395 77.1807 119.545 77.764C119.011 78.1301 118.678 78.4782 118.545 78.8084C118.407 79.1297 118.424 79.4167 118.597 79.6697C118.771 79.9226 119.046 80.0131 119.422 79.9411C119.798 79.8691 120.354 79.6805 121.089 79.3754C121.919 79.0327 122.63 78.7901 123.225 78.6483C123.822 78.491 124.426 78.4889 125.036 78.6416C125.649 78.7791 126.182 79.1778 126.634 79.8373Z" fill="#DFDFDF"/>
<path d="M89.3109 202.595L83.0729 157.941L21.8674 166.491L28.1053 211.145L89.3109 202.595Z" fill="#DFDFDF"/>
<path d="M89.3109 202.595L83.0729 157.941L78.8406 158.532L85.0786 203.186L89.3109 202.595Z" fill="#F3F3F3"/>
<path d="M78.8876 176.022L42.6469 149.199L5.88104 198.873L42.1217 225.696L78.8876 176.022Z" fill="#F3F3F3"/>
<path d="M78.8876 176.022L42.6469 149.199L40.1046 152.634L76.3453 179.457L78.8876 176.022Z" fill="#DFDFDF"/>
<path d="M68.1439 182.793L39.5746 161.648L37.8145 164.026L66.3838 185.171L68.1439 182.793Z" fill="#DFDFDF"/>
<path d="M64.6237 187.549L36.0544 166.404L34.2944 168.782L62.8637 189.927L64.6237 187.549Z" fill="#DFDFDF"/>
<path d="M61.1036 192.305L32.5343 171.16L30.7743 173.538L59.3436 194.683L61.1036 192.305Z" fill="#DFDFDF"/>
<path d="M29.4967 193.409C28.9556 194.14 28.2217 194.578 27.295 194.724C26.3837 194.867 25.3745 194.645 24.2672 194.057L23.1818 195.523L21.5946 194.349L22.6409 192.935C22.0122 192.402 21.4675 191.828 21.0072 191.215C20.5533 190.593 20.2301 190.006 20.0377 189.454L22.325 188.162C22.5375 188.742 22.8549 189.318 23.2778 189.889C23.7007 190.461 24.1766 190.943 24.7057 191.335C25.7109 192.079 26.3993 192.2 26.7708 191.698C26.9664 191.434 26.9643 191.132 26.7646 190.793C26.5802 190.452 26.2228 189.976 25.6922 189.366C25.1065 188.7 24.6418 188.111 24.2983 187.598C23.9614 187.076 23.7655 186.501 23.7107 185.875C23.6559 185.248 23.8665 184.613 24.3424 183.97C24.903 183.213 25.6555 182.768 26.5998 182.635C27.5507 182.494 28.5875 182.743 29.7105 183.383L30.7861 181.93L32.3733 183.105L31.3172 184.532C31.7872 184.948 32.2026 185.392 32.5633 185.863C32.9329 186.341 33.2202 186.82 33.4253 187.299L31.1811 188.643C30.6513 187.515 29.972 186.644 29.1432 186.031C28.6229 185.646 28.1851 185.444 27.8297 185.427C27.4807 185.4 27.215 185.51 27.0325 185.757C26.8501 186.003 26.8543 186.293 27.0451 186.625C27.2359 186.957 27.5956 187.421 28.1239 188.016C28.7184 188.688 29.1799 189.282 29.508 189.798C29.8515 190.311 30.0505 190.881 30.1053 191.507C30.1754 192.132 29.9725 192.766 29.4967 193.409Z" fill="#DFDFDF"/>
<path d="M111.562 291.471L67.7754 280.717L53.036 340.734L96.8224 351.487L111.562 291.471Z" fill="#DFDFDF"/>
<path d="M111.562 291.471L67.7754 280.717L66.7562 284.867L110.543 295.621L111.562 291.471Z" fill="#F3F3F3"/>
<path d="M91.4529 293.045L47.3103 302.227L59.8963 362.732L104.039 353.549L91.4529 293.045Z" fill="#F3F3F3"/>
<path d="M91.4529 293.045L47.3103 302.227L48.1806 306.411L92.3232 297.229L91.4529 293.045Z" fill="#DFDFDF"/>
<path d="M89.3521 305.569L54.5536 312.808L55.1561 315.704L89.9546 308.466L89.3521 305.569Z" fill="#DFDFDF"/>
<path d="M90.5571 311.362L55.7586 318.601L56.3611 321.498L91.1596 314.259L90.5571 311.362Z" fill="#DFDFDF"/>
<path d="M91.7621 317.155L56.9636 324.394L57.5661 327.291L92.3646 320.052L91.7621 317.155Z" fill="#DFDFDF"/>
<path d="M71.5421 341.473C71.7273 342.364 71.5658 343.203 71.0575 343.992C70.5577 344.767 69.72 345.372 68.5442 345.807L68.9158 347.593L66.9826 347.995L66.6244 346.274C65.8077 346.387 65.0173 346.412 64.253 346.347C63.4866 346.272 62.8336 346.122 62.2941 345.898L62.8525 343.331C63.4265 343.559 64.0676 343.705 64.7759 343.771C65.4842 343.836 66.1606 343.801 66.805 343.667C68.0294 343.413 68.578 342.98 68.4508 342.368C68.3838 342.046 68.1576 341.847 67.7719 341.771C67.3947 341.681 66.8016 341.631 65.9926 341.62C65.1062 341.614 64.3572 341.569 63.7455 341.483C63.1316 341.387 62.5727 341.151 62.0686 340.775C61.5645 340.398 61.231 339.818 61.0681 339.035C60.8762 338.113 61.0451 337.255 61.5749 336.462C62.1024 335.658 62.9789 335.051 64.2043 334.639L63.8361 332.869L65.7693 332.467L66.1308 334.205C66.7542 334.131 67.3619 334.117 67.9538 334.161C68.5565 334.204 69.1048 334.308 69.5987 334.474L69.1081 337.044C67.9135 336.688 66.8115 336.615 65.8019 336.825C65.1682 336.957 64.7265 337.15 64.4766 337.403C64.2246 337.646 64.1298 337.917 64.1923 338.218C64.2547 338.518 64.4734 338.707 64.8484 338.786C65.2234 338.865 65.8088 338.905 66.6048 338.908C67.502 338.911 68.2521 338.962 68.8553 339.061C69.4669 339.146 70.0248 339.377 70.5289 339.753C71.0415 340.117 71.3792 340.69 71.5421 341.473Z" fill="#DFDFDF"/>
<path d="M173 99L197.883 116.981L179.53 131.364L204.583 155.278" stroke="#DFDFDF" stroke-width="8" stroke-linecap="round" stroke-dasharray="20 20"/>
<path d="M184.487 327.96L157.661 335.194L156.666 309.466L120.986 314.399" stroke="#DFDFDF" stroke-width="8" stroke-linecap="round" stroke-dasharray="20 20"/>
<path d="M106 207L129.824 224.652L143.817 198.824L174.437 213.906" stroke="#DFDFDF" stroke-width="8" stroke-linecap="round" stroke-dasharray="20 20"/>
<path d="M371.921 76.4153L425.155 45.2357L421.266 30.6305H375.237V29.4677C375.237 29.4461 375.237 29.4281 375.237 29.4065V26.2205C375.237 25.8969 375.107 25.5866 374.876 25.3576C374.646 25.1286 374.332 25.0001 374.008 25.0001H362.231C361.905 25.0001 361.592 25.1286 361.361 25.3576C361.13 25.5866 361 25.8969 361 26.2205V30.6305L368.582 76.4153H371.921Z" fill="#D0CBCB"/>
<path d="M433.084 62.0801H433.07V75.0581C433.07 76.204 432.612 77.3027 431.794 78.1127C430.976 78.9231 429.869 79.3781 428.712 79.3781H372.739C371.586 79.3781 370.476 78.9231 369.659 78.1127C368.841 77.3027 368.383 76.204 368.383 75.0581V38.2841C368.383 37.1382 368.841 36.0395 369.659 35.2295C370.476 34.4192 371.586 33.9641 372.739 33.9641H428.726C429.883 33.9641 430.99 34.4192 431.808 35.2295C432.626 36.0395 433.084 37.1382 433.084 38.2841V62.0801Z" fill="#DFDFDF"/>
<path d="M393.808 62.0001L393.793 55.7001L390.703 60.8901H389.608L386.533 55.8351V62.0001H384.253V51.5001H386.263L390.193 58.0251L394.063 51.5001H396.058L396.088 62.0001H393.808ZM403.904 57.8751L402.494 59.3451V62.0001H400.079V51.5001H402.494V56.4051L407.144 51.5001H409.844L405.494 56.1801L410.099 62.0001H407.264L403.904 57.8751ZM414.14 53.4801H410.78V51.5001H419.93V53.4801H416.57V62.0001H414.14V53.4801Z" fill="white"/>
<path d="M440.921 147.415L494.155 116.236L490.266 101.63H444.237V100.468C444.237 100.446 444.237 100.428 444.237 100.406V97.2204C444.237 96.8968 444.107 96.5864 443.876 96.3575C443.646 96.1285 443.332 96 443.008 96H431.231C430.905 96 430.592 96.1285 430.361 96.3575C430.13 96.5864 430 96.8968 430 97.2204V101.63L437.582 147.415H440.921Z" fill="#D0CBCB"/>
<path d="M502.084 133.08H502.07V146.058C502.07 147.204 501.612 148.303 500.794 149.113C499.976 149.923 498.869 150.378 497.712 150.378H441.739C440.586 150.378 439.476 149.923 438.659 149.113C437.841 148.303 437.383 147.204 437.383 146.058V109.284C437.383 108.138 437.841 107.039 438.659 106.229C439.476 105.419 440.586 104.964 441.739 104.964H497.726C498.883 104.964 499.99 105.419 500.808 106.229C501.626 107.039 502.084 108.138 502.084 109.284V133.08Z" fill="#DFDFDF"/>
<path d="M465.113 133L463.088 130.075H462.968H460.853V133H458.423V122.5H462.968C463.898 122.5 464.703 122.655 465.383 122.965C466.073 123.275 466.603 123.715 466.973 124.285C467.343 124.855 467.528 125.53 467.528 126.31C467.528 127.09 467.338 127.765 466.958 128.335C466.588 128.895 466.058 129.325 465.368 129.625L467.723 133H465.113ZM465.068 126.31C465.068 125.72 464.878 125.27 464.498 124.96C464.118 124.64 463.563 124.48 462.833 124.48H460.853V128.14H462.833C463.563 128.14 464.118 127.98 464.498 127.66C464.878 127.34 465.068 126.89 465.068 126.31ZM480.583 122.5V133H478.153V128.695H473.383V133H470.953V122.5H473.383V126.64H478.153V122.5H480.583Z" fill="white"/>
<path d="M363 172.36C363 168.76 369.488 163 380.661 163C394.357 163 413.098 192.16 434.003 192.16C448.419 192.16 465.5 188.78 465.5 167.18" stroke="#DFDFDF" stroke-width="8" stroke-miterlimit="10" stroke-dasharray="20 20"/>
<path d="M463.994 252.997H497.99M463.994 252.997V219C455.787 219.002 447.858 221.971 441.67 227.361C435.483 232.751 431.451 240.197 430.322 248.325C429.196 256.454 431.043 264.716 435.531 271.587C440.018 278.459 446.837 283.476 454.735 285.713C462.628 287.949 471.068 287.255 478.49 283.757C485.915 280.26 491.822 274.195 495.126 266.683C498.427 259.171 498.902 250.717 496.459 242.883C494.016 235.048 488.824 228.361 481.839 224.055L463.994 252.997Z" stroke="#DFDFDF" stroke-width="5" stroke-linecap="round" stroke-linejoin="round"/>
</svg>
